Coordinates
version=1
nRows=26
nColumns=22
inDegrees=yes

Units are S.I. units (second, meters, Newtons, ...)
If the header above contains a line with 'inDegrees', this indicates whether rotational values are in degrees (yes) or radians (no).

endheader
time	pelvis_tilt	pelvis_list	pelvis_rotation	pelvis_tx	pelvis_ty	pelvis_tz	hip_flexion_r	hip_adduction_r	hip_rotation_r	knee_angle_r	ankle_angle_r	subtalar_angle_r	hip_flexion_l	hip_adduction_l	hip_rotation_l	knee_angle_l	ankle_angle_l	subtalar_angle_l	lumbar_extension	lumbar_bending	lumbar_rotation
      3.28000000	     -2.32715913	      0.15377949	    -19.80118935	      0.23294778	      0.89580733	     -0.45283663	     26.73757305	      9.50131769	    -17.86681064	    -24.51407831	      4.12825271	    -13.46796666	     -2.91484949	     -7.08992386	     -9.51578081	    -48.75973408	    -11.33685412	     13.14936027	     -6.68765607	      1.32517832	    -20.23990357
      3.29000000	     -2.34691495	      0.30323399	    -20.62995783	      0.24078410	      0.89699849	     -0.44809918	     26.10891642	      9.78252820	    -17.20833593	    -24.46868873	      4.54583988	    -13.76875712	     -1.31253669	     -7.09151041	     -8.51177113	    -51.32074297	    -13.70809501	     13.00839944	     -6.58614117	      1.23576221	    -20.36686659
      3.30000000	     -2.37979837	      0.42191308	    -21.45432388	      0.24831838	      0.89811913	     -0.44343483	     25.44200544	     10.09456701	    -16.56334790	    -24.31659540	      4.91754559	    -14.10115163	      0.41377517	     -7.13435819	     -7.53552283	    -53.90851857	    -15.63119244	     12.62205241	     -6.51014243	      1.18325795	    -20.43242357
      3.31000000	     -2.42443369	      0.49710190	    -22.29546153	      0.25557288	      0.89917789	     -0.43879883	     24.73984404	     10.45396447	    -15.90449115	    -24.08222349	      5.22735847	    -14.41986068	      2.22866167	     -7.23502320	     -6.61184891	    -56.48363680	    -17.02515423	     12.02548885	     -6.46418380	      1.17939452	    -20.43248547
      3.32000000	     -2.47952167	      0.52828852	    -23.17334832	      0.26258030	      0.90019259	     -0.43414250	     24.00168182	     10.86505601	    -15.20879972	    -23.77914960	      5.48117753	    -14.69485581	      4.09773042	     -7.39098085	     -5.74014085	    -58.99978002	    -17.85585740	     11.28377972	     -6.44572491	      1.22161110	    -20.34216663
      3.33000000	     -2.52459563	      0.52619557	    -24.10491587	      0.26937075	      0.90118829	     -0.42941051	     23.22001894	     11.31081019	    -14.45593033	    -23.44042330	      5.75014642	    -14.91494751	      5.97428461	     -7.59049608	     -4.93248278	    -61.41475103	    -18.17217008	     10.41158474	     -6.46650755	      1.28461935	    -20.16379659
      3.34000000	     -2.58352068	      0.48301751	    -25.10909632	      0.27591774	      0.90217276	     -0.42452631	     22.40286786	     11.82244002	    -13.60018556	    -23.04390415	      5.87208527	    -15.05038389	      7.85477952	     -7.85115062	     -4.16355122	    -63.70021711	    -18.04384932	      9.68020509	     -6.50356774	      1.38130271	    -19.89260555
      3.35000000	     -2.63107242	      0.42011695	    -26.19737981	      0.28224850	      0.90316259	     -0.41944649	     21.54093671	     12.36395128	    -12.64667338	    -22.62625852	      6.01011173	    -15.13827247	      9.69660715	     -8.14842658	     -3.44224476	    -65.82130091	    -17.60561838	      8.94392926	     -6.56786741	      1.47126984	    -19.50989021
      3.36000000	     -2.66497792	      0.34600599	    -27.37114854	      0.28837367	      0.90418924	     -0.41414250	     20.61461241	     12.92848690	    -11.57680555	    -22.15721920	      6.10735800	    -15.18294887	     11.47936689	     -8.46708858	     -2.74620006	    -67.74887685	    -16.96533962	      8.28073695	     -6.65095784	      1.54159636	    -19.02895664
      3.37000000	     -2.68642952	      0.26615144	    -28.63126447	      0.29425939	      0.90523891	     -0.40860932	     19.63351840	     13.50424402	    -10.40034314	    -21.65215861	      6.17211689	    -15.20664903	     13.19852990	     -8.80316085	     -2.06371545	    -69.47515858	    -16.21892297	      7.61789685	     -6.74981187	      1.58474242	    -18.45951206
      3.38000000	     -2.69958519	      0.18467681	    -29.97463794	      0.29990129	      0.90630575	     -0.40286165	     18.59271919	     14.08161502	     -9.13094908	    -21.09456641	      6.19170719	    -15.22100683	     14.84845512	     -9.14690145	     -1.37688682	    -70.98934819	    -15.41356374	      6.96715566	     -6.85623726	      1.60008744	    -17.80771562
      3.39000000	     -2.70973695	      0.10752953	    -31.38046450	      0.30530876	      0.90737647	     -0.39695657	     17.49505061	     14.64290325	     -7.79762887	    -20.47546492	      6.18955731	    -15.23993088	     16.43777534	     -9.48505364	     -0.66538442	    -72.29004836	    -14.56114894	      6.24868711	     -6.95827602	      1.59049393	    -17.10244779
      3.40000000	     -2.72458742	      0.03566172	    -32.83937288	      0.31047222	      0.90841751	     -0.39092795	     16.35240750	     15.18301201	     -6.40515341	    -19.80013710	      6.14414905	    -15.26329814	     17.97153261	     -9.81638239	      0.08276587	    -73.37997994	    -13.64109237	      5.57608870	     -7.04744207	      1.56421368	    -16.36092158
      3.41000000	     -2.75396988	     -0.03049628	    -34.34669887	      0.31539547	      0.90940959	     -0.38480470	     15.17654661	     15.69748487	     -4.97866935	    -19.06999376	      6.06041679	    -15.29600004	     19.45125674	    -10.14676379	      0.86280045	    -74.25556773	    -12.62917030	      4.89970103	     -7.11618120	      1.52874541	    -15.58473469
      3.42000000	     -2.80022430	     -0.09237025	    -35.89155313	      0.32010640	      0.91033568	     -0.37861752	     13.97509521	     16.18179206	     -3.52132697	    -18.29740326	      5.95590573	    -15.33324348	     20.87618668	    -10.48491781	      1.66375164	    -74.91958196	    -11.50448236	      4.21007153	     -7.16116809	      1.49620780	    -14.77775902
      3.43000000	     -2.86052573	     -0.15102419	    -37.46827104	      0.32462187	      0.91119876	     -0.37239417	     12.75774183	     16.63090132	     -2.02320552	    -17.50493931	      5.83613776	    -15.37062077	     22.23843783	    -10.83543365	      2.46862416	    -75.37125847	    -10.27673293	      3.46317140	     -7.18924767	      1.46978055	    -13.95212207
      3.44000000	     -2.93772257	     -0.20577380	    -39.06590244	      0.32898633	      0.91198396	     -0.36616830	     11.54738906	     17.03963371	     -0.50438179	    -16.72717040	      5.74380801	    -15.39592868	     23.53723968	    -11.20049340	      3.26360627	    -75.61197801	     -8.94500029	      2.65783356	     -7.19846316	      1.45731803	    -13.11313986
      3.45000000	     -3.02848475	     -0.23514209	    -40.70095289	      0.33318640	      0.91271477	     -0.35992405	     10.35455561	     17.39625517	      1.10488661	    -15.96375769	      5.57773099	    -15.40699676	     24.77121799	    -11.57070794	      4.00380097	    -75.62443218	     -7.64266431	      1.88517865	     -7.17918944	      1.43648326	    -12.24892659
      3.46000000	     -3.12711802	     -0.24942570	    -42.35908319	      0.33727393	      0.91338787	     -0.35370150	      9.19282304	     17.70008627	      2.77305035	    -15.25626527	      5.43150230	    -15.40169597	     25.92615376	    -11.94385262	      4.68274813	    -75.40990879	     -6.33242338	      1.08485286	     -7.14496891	      1.42236286	    -11.37245401
      3.47000000	     -3.22434361	     -0.25039877	    -44.03431561	      0.34130374	      0.91401725	     -0.34750047	      8.06161154	     17.94407049	      4.46313671	    -14.61831273	      5.33523939	    -15.38305700	     26.98366994	    -12.31240433	      5.27959623	    -74.96127851	     -5.00272683	      0.21532139	     -7.10390452	      1.41430825	    -10.49062848
      3.48000000	     -3.30434310	     -0.21057915	    -45.73897887	      0.34524604	      0.91463407	     -0.34131800	      6.95941627	     18.10471933	      6.27221980	    -14.02857538	      5.21461300	    -15.35409748	     27.94145906	    -12.63761164	      5.76893755	    -74.26159766	     -3.80186618	     -0.56914562	     -7.04745633	      1.37249452	     -9.59740019
      3.49000000	     -3.36369196	     -0.15352827	    -47.45121703	      0.34917945	      0.91523087	     -0.33517734	      5.88293039	     18.18789734	      8.09423539	    -13.50369114	      5.15795794	    -15.31775289	     28.78146828	    -12.92106204	      6.16124306	    -73.32033470	     -2.60817622	     -1.38648005	     -6.99448112	      1.32386012	     -8.71001798
      3.50000000	     -3.39754037	     -0.06735399	    -49.16515239	      0.35311459	      0.91580999	     -0.32908278	      4.83748682	     18.18285999	      9.93306995	    -13.02994750	      5.14428808	    -15.27317107	     29.50729296	    -13.13534179	      6.46121525	    -72.13051932	     -1.49244227	     -2.11091696	     -6.93757247	      1.25386688	     -7.83301431
      3.51000000	     -3.40350314	      0.04251554	    -50.87484353	      0.35705570	      0.91636409	     -0.32302791	      3.82491844	     18.09276583	     11.76412870	    -12.60772282	      5.17504028	    -15.21842041	     30.11710756	    -13.27144591	      6.68269802	    -70.69903345	     -0.46910309	     -2.68188510	     -6.87828791	      1.16214983	     -6.96881954
      3.52000000	     -3.37891175	      0.16983402	    -52.56816655	      0.36103072	      0.91689211	     -0.31701548	      2.84140881	     17.91879223	     13.55874520	    -12.22753376	      5.24966752	    -15.15078614	     30.60724679	    -13.31819684	      6.84475370	    -69.02677640	      0.45855027	     -3.08203163	     -6.82129122	      1.05174692	     -6.12734365
      3.53000000	     -3.35757857	      0.33140836	    -54.23559008	      0.36502993	      0.91730962	     -0.31105134	      1.94211774	     17.68308490	     15.26947121	    -11.90436520	      5.37560648	    -15.06785420	     31.03275578	    -13.29107519	      6.96901674	    -67.13046470	      1.26532687	     -3.22833241	     -6.72470749	      0.93878524	     -5.28728376
